<svg width="170" height="170" viewBox="0 0 170 170" fill="none" xmlns="http://www.w3.org/2000/svg">
<path d="M85 170C131.944 170 170 131.944 170 85C170 38.0558 131.944 0 85 0C38.0558 0 0 38.0558 0 85C0 131.944 38.0558 170 85 170Z" fill="#006270"/>
<path d="M85 160C126.421 160 160 126.421 160 85C160 43.5786 126.421 10 85 10C43.5786 10 10 43.5786 10 85C10 126.421 43.5786 160 85 160Z" fill="#009394"/>
<path d="M85.0001 160C126.421 160 160 126.421 160 85C160 43.5786 126.421 10 85.0001 10L85.0002 82.5L85.0001 160Z" fill="#00E0C7"/>
<path d="M62.1468 54.4607C65.7845 54.4607 68.7437 57.4199 68.7437 61.0576C68.7437 64.6952 65.7845 67.6544 62.1468 67.6544C58.5092 67.6544 55.55 64.6952 55.55 61.0576C55.55 57.4199 58.5092 54.4607 62.1468 54.4607ZM62.1468 49.7486C55.9018 49.7486 50.838 54.8125 50.838 61.0576C50.838 67.3026 55.9018 72.3665 62.1468 72.3665C68.3919 72.3665 73.4557 67.3026 73.4557 61.0576C73.4557 54.8125 68.3919 49.7486 62.1468 49.7486Z" fill="#151515"/>
<path d="M107.382 54.4607C111.02 54.4607 113.979 57.4199 113.979 61.0576C113.979 64.6952 111.02 67.6544 107.382 67.6544C103.744 67.6544 100.785 64.6952 100.785 61.0576C100.785 57.4199 103.744 54.4607 107.382 54.4607ZM107.382 49.7486C101.137 49.7486 96.0732 54.8125 96.0732 61.0576C96.0732 67.3026 101.137 72.3665 107.382 72.3665C113.627 72.3665 118.691 67.3026 118.691 61.0576C118.691 54.8125 113.627 49.7486 107.382 49.7486Z" fill="#151515"/>
<path d="M41.5414 36.4547L37.5432 40.453L53.5362 56.446L57.5344 52.4477L41.5414 36.4547Z" fill="#151515"/>
<path d="M127.98 36.3609L111.987 52.354L115.985 56.3523L131.978 40.3592L127.98 36.3609Z" fill="#151515"/>
<path d="M132.356 106.45H126.702V37.7267L132.356 32V106.45Z" fill="#151515"/>
<path d="M37.0176 106.45H42.6721V37.7267L37.0176 32V106.45Z" fill="#151515"/>
<path d="M40.9983 102.35L37 106.349L73.8118 143.16L77.81 139.162L40.9983 102.35Z" fill="#151515"/>
<path d="M84.6075 137.864C88.2452 137.864 91.2043 140.823 91.2043 144.461C91.2043 148.098 88.2452 151.058 84.6075 151.058C80.9698 151.058 78.0106 148.098 78.0106 144.461C78.0106 140.823 80.9698 137.864 84.6075 137.864ZM84.6075 133.152C78.3625 133.152 73.2986 138.216 73.2986 144.461C73.2986 150.706 78.3625 155.77 84.6075 155.77C90.8525 155.77 95.9164 150.706 95.9164 144.461C95.9164 138.216 90.8525 133.152 84.6075 133.152Z" fill="#151515"/>
<path d="M128.419 102.336L91.6068 139.148L95.6051 143.146L132.417 106.334L128.419 102.336Z" fill="#151515"/>
<path d="M99.8933 98.8418H68.6367V106.067H99.8933V98.8418Z" fill="#151515"/>
<path d="M107.589 116.119L98.7401 116.25C97.647 116.266 96.6684 115.578 96.3119 114.546L81.2019 70.7283H89.9977L107.589 116.119Z" fill="#151515"/>
<path d="M61.801 116.188L70.6502 116.319C71.7434 116.334 72.7219 115.646 73.0785 114.615L88.1884 70.7974H79.3926L61.801 116.188Z" fill="#151515"/>
<path d="M90.8903 73.466H78.4819L79.4243 70.6387H89.9479L90.8903 73.466Z" fill="#151515"/>
</svg>
