<svg width="45" height="45" viewBox="0 0 45 45" fill="none" xmlns="http://www.w3.org/2000/svg">
<g clip-path="url(#clip0)">
<path d="M22.5942 44.7408C34.9556 44.7408 44.9764 34.72 44.9764 22.3586C44.9764 9.99729 34.9556 -0.0235596 22.5942 -0.0235596C10.2329 -0.0235596 0.212036 9.99729 0.212036 22.3586C0.212036 34.72 10.2329 44.7408 22.5942 44.7408Z" fill="#009394"/>
<path d="M15.9503 13.4529C17.0416 13.4529 17.9293 14.3406 17.9293 15.4319C17.9293 16.5232 17.0416 17.411 15.9503 17.411C14.859 17.411 13.9712 16.5232 13.9712 15.4319C13.9712 14.3406 14.859 13.4529 15.9503 13.4529ZM15.9503 12.0392C14.0768 12.0392 12.5576 13.5584 12.5576 15.4319C12.5576 17.3054 14.0768 18.8246 15.9503 18.8246C17.8238 18.8246 19.343 17.3054 19.343 15.4319C19.343 13.5584 17.8238 12.0392 15.9503 12.0392Z" fill="#151515"/>
<path d="M29.521 13.4529C30.6123 13.4529 31.5 14.3406 31.5 15.4319C31.5 16.5232 30.6123 17.411 29.521 17.411C28.4297 17.411 27.5419 16.5232 27.5419 15.4319C27.5419 14.3406 28.4297 13.4529 29.521 13.4529ZM29.521 12.0392C27.6475 12.0392 26.1283 13.5584 26.1283 15.4319C26.1283 17.3054 27.6475 18.8246 29.521 18.8246C31.3945 18.8246 32.9136 17.3054 32.9136 15.4319C32.9136 13.5584 31.3945 12.0392 29.521 12.0392Z" fill="#151515"/>
<path d="M9.76869 8.05104L8.56921 9.25052L13.3671 14.0484L14.5666 12.8489L9.76869 8.05104Z" fill="#151515"/>
<path d="M35.7002 8.02291L30.9023 12.8208L32.1018 14.0203L36.8996 9.22239L35.7002 8.02291Z" fill="#151515"/>
<path d="M37.0131 29.0497H35.3168V8.43267L37.0131 6.71466V29.0497Z" fill="#151515"/>
<path d="M8.4115 29.0497H10.1078V8.43267L8.4115 6.71466V29.0497Z" fill="#151515"/>
<path d="M9.60573 27.8198L8.40625 29.0193L19.4498 40.0628L20.6493 38.8633L9.60573 27.8198Z" fill="#151515"/>
<path d="M22.6885 38.4738C23.7798 38.4738 24.6676 39.3616 24.6676 40.4529C24.6676 41.5442 23.7798 42.4319 22.6885 42.4319C21.5972 42.4319 20.7095 41.5442 20.7095 40.4529C20.7095 39.3616 21.5972 38.4738 22.6885 38.4738ZM22.6885 37.0602C20.815 37.0602 19.2958 38.5794 19.2958 40.4529C19.2958 42.3264 20.815 43.8456 22.6885 43.8456C24.562 43.8456 26.0812 42.3264 26.0812 40.4529C26.0812 38.5794 24.562 37.0602 22.6885 37.0602Z" fill="#151515"/>
<path d="M35.8318 27.8153L24.7883 38.8589L25.9877 40.0584L37.0313 29.0148L35.8318 27.8153Z" fill="#151515"/>
<path d="M27.2742 26.7672H17.8973V28.9348H27.2742V26.7672Z" fill="#151515"/>
<path d="M29.5832 31.9505L26.9284 31.9896C26.6004 31.9943 26.3069 31.7879 26.1999 31.4783L21.6669 18.3331H24.3057L29.5832 31.9505Z" fill="#151515"/>
<path d="M15.8466 31.9712L18.5014 32.0103C18.8293 32.015 19.1229 31.8086 19.2299 31.499L23.7629 18.3539H21.1241L15.8466 31.9712Z" fill="#151515"/>
<path d="M24.5733 19.1544H20.8508L21.1336 18.3063H24.2906L24.5733 19.1544Z" fill="#151515"/>
</g>
<defs>
<clipPath id="clip0">
<rect width="45" height="45" fill="white"/>
</clipPath>
</defs>
</svg>
